<svg width="100" height="100" viewBox="0 0 100 100" fill="none" xmlns="http://www.w3.org/2000/svg">
<path d="M45.2964 68.4425H54.704" stroke="white" stroke-width="2" stroke-miterlimit="22.9256" stroke-linecap="round" stroke-linejoin="round"/>
<path fill-rule="evenodd" clip-rule="evenodd" d="M15.2315 73.5192C10.6521 73.5192 6.86914 69.7362 6.86914 65.107V18.4172C6.86914 13.788 10.6521 10.005 15.2315 10.005H84.7686C89.348 10.005 93.131 13.788 93.131 18.4172V65.107C93.131 69.7362 89.348 73.5192 84.7686 73.5192H15.2315Z" stroke="white" stroke-width="2" stroke-miterlimit="22.9256" stroke-linecap="round" stroke-linejoin="round"/>
<path d="M6.91895 63.4142H93.131" stroke="white" stroke-width="2" stroke-miterlimit="22.9256" stroke-linecap="round" stroke-linejoin="round"/>
<path d="M39.4224 73.8175V80.0893C39.4224 82.7274 37.2323 84.8678 34.6439 84.8678H25.1865C23.743 84.8678 22.5981 86.0126 22.5981 87.4064C22.5981 88.8499 23.743 89.9947 25.1865 89.9947H74.863C76.2567 89.9947 77.4015 88.8499 77.4015 87.4064C77.4015 86.0126 76.2567 84.8678 74.863 84.8678H65.3557C62.7674 84.8678 60.627 82.7274 60.627 80.0893V73.8175" stroke="white" stroke-width="2" stroke-miterlimit="22.9256" stroke-linecap="round" stroke-linejoin="round"/>
<path fill-rule="evenodd" clip-rule="evenodd" d="M40.9658 41.9122H56.0479C57.4914 41.9122 58.6861 40.7176 58.6861 39.2741V34.2965C58.6861 32.9028 57.4914 31.7081 56.0479 31.7081H40.9658C39.5721 31.7081 38.3774 32.9028 38.3774 34.2965V39.2741C38.3774 40.7176 39.5721 41.9122 40.9658 41.9122Z" stroke="#FF9029" stroke-width="2" stroke-miterlimit="22.9256" stroke-linecap="round" stroke-linejoin="round"/>
<path fill-rule="evenodd" clip-rule="evenodd" d="M16.9238 55.8495H32.0059C33.4494 55.8495 34.5943 54.6549 34.5943 53.2611V34.2965C34.5943 32.9028 33.4494 31.7081 32.0059 31.7081H16.9238C15.4803 31.7081 14.2856 32.9028 14.2856 34.2965V53.2611C14.2856 54.6549 15.4803 55.8495 16.9238 55.8495Z" stroke="#FF9029" stroke-width="2" stroke-miterlimit="22.9256" stroke-linecap="round" stroke-linejoin="round"/>
<path fill-rule="evenodd" clip-rule="evenodd" d="M16.9238 27.9248H56.0477C57.4912 27.9248 58.6858 26.78 58.6858 25.3365V20.2095C58.6858 18.766 57.4912 17.5714 56.0477 17.5714H16.9238C15.4803 17.5714 14.2856 18.766 14.2856 20.2095V25.3365C14.2856 26.78 15.4803 27.9248 16.9238 27.9248Z" stroke="#FF9029" stroke-width="2" stroke-miterlimit="22.9256" stroke-linecap="round" stroke-linejoin="round"/>
<path d="M73.0702 44.473C73.0702 42.2601 71.2763 40.4662 69.0634 40.4662C66.8505 40.4662 65.0566 42.2601 65.0566 44.473C65.0566 46.6858 66.8505 48.4797 69.0634 48.4797C71.2763 48.4797 73.0702 46.6858 73.0702 44.473Z" stroke="white" stroke-width="2" stroke-miterlimit="22.9256" stroke-linecap="round" stroke-linejoin="round"/>
<path d="M69.0391 39.4231V17.5714" stroke="white" stroke-width="2" stroke-miterlimit="22.9256" stroke-linecap="round" stroke-linejoin="round"/>
<path d="M69.0391 55.8492V48.4823" stroke="white" stroke-width="2" stroke-miterlimit="22.9256" stroke-linecap="round" stroke-linejoin="round"/>
<path fill-rule="evenodd" clip-rule="evenodd" d="M40.9658 55.8487H56.0479C57.4914 55.8487 58.6861 54.6541 58.6861 53.2604V48.2828C58.6861 46.8393 57.4914 45.6447 56.0479 45.6447H40.9658C39.5721 45.6447 38.3774 46.8393 38.3774 48.2828V53.2604C38.3774 54.6541 39.5721 55.8487 40.9658 55.8487Z" stroke="#FF9029" stroke-width="2" stroke-miterlimit="22.9256" stroke-linecap="round" stroke-linejoin="round"/>
<path d="M84.6288 28.9697C84.6288 31.1826 82.8349 32.9765 80.622 32.9765C78.4091 32.9765 76.6152 31.1826 76.6152 28.9697C76.6152 26.7568 78.4091 24.9629 80.622 24.9629C82.8349 24.9629 84.6288 26.7568 84.6288 28.9697Z" stroke="white" stroke-width="2" stroke-miterlimit="22.9256" stroke-linecap="round" stroke-linejoin="round"/>
<path d="M80.6367 34.047V55.8489" stroke="white" stroke-width="2" stroke-miterlimit="22.9256" stroke-linecap="round" stroke-linejoin="round"/>
<path d="M80.6367 17.5714V24.988" stroke="white" stroke-width="2" stroke-miterlimit="22.9256" stroke-linecap="round" stroke-linejoin="round"/>
</svg>
