<svg width="100" height="100" viewBox="0 0 100 100" fill="none" xmlns="http://www.w3.org/2000/svg">
<path d="M27.5107 19.5134V15.2432C27.5107 10.6366 31.2892 6.85815 35.8958 6.85815H64.1567C68.7633 6.85815 72.5418 10.6366 72.5418 15.2432V36.4907" stroke="white" stroke-width="2" stroke-miterlimit="22.9256" stroke-linecap="round" stroke-linejoin="round"/>
<path d="M64.1562 6.85815H72.619C77.2256 6.85815 81.0041 10.6366 81.0041 15.2432V36.4907" stroke="white" stroke-width="2" stroke-miterlimit="22.9256" stroke-linecap="round" stroke-linejoin="round"/>
<path d="M45.3159 12.7332H54.7362" stroke="white" stroke-width="2" stroke-miterlimit="22.9256" stroke-linecap="round" stroke-linejoin="round"/>
<path fill-rule="evenodd" clip-rule="evenodd" d="M27.5105 19.5134C38.1989 19.5134 46.8687 28.1832 46.8687 38.8716C46.8687 49.56 38.1989 58.2298 27.5105 58.2298C16.8221 58.2298 8.15234 49.56 8.15234 38.8716C8.15234 28.1832 16.8221 19.5134 27.5105 19.5134Z" stroke="white" stroke-width="2" stroke-miterlimit="22.9256" stroke-linecap="round" stroke-linejoin="round"/>
<path d="M27.5105 40.1135C30.755 40.1135 33.3852 37.4833 33.3852 34.2388C33.3852 30.9942 30.755 28.364 27.5105 28.364C24.266 28.364 21.6357 30.9942 21.6357 34.2388C21.6357 37.4833 24.266 40.1135 27.5105 40.1135Z" stroke="white" stroke-width="2" stroke-miterlimit="22.9256" stroke-linecap="round" stroke-linejoin="round"/>
<path d="M13.1987 51.8896C16.7443 48.0077 21.8426 45.575 27.5103 45.575C33.178 45.575 38.2764 48.0077 41.8219 51.8896" stroke="white" stroke-width="2" stroke-miterlimit="22.9256" stroke-linecap="round" stroke-linejoin="round"/>
<path d="M72.5418 59.576V84.7571C72.5418 89.3638 68.7633 93.1422 64.1567 93.1422H35.8958C31.2892 93.1422 27.5107 89.3638 27.5107 84.7571V58.2302" stroke="white" stroke-width="2" stroke-miterlimit="22.9256" stroke-linecap="round" stroke-linejoin="round"/>
<path d="M81.0041 59.5759V84.7571C81.0041 89.3637 77.2256 93.1422 72.619 93.1422H63.3281" stroke="white" stroke-width="2" stroke-miterlimit="22.9256" stroke-linecap="round" stroke-linejoin="round"/>
<path fill-rule="evenodd" clip-rule="evenodd" d="M87.0601 36.491H64.8034C62.1895 36.491 60.0415 38.6131 60.0415 41.2529V63.7684C60.0415 61.1286 62.1637 58.9806 64.8034 58.9806H87.0601C89.6999 58.9806 91.8479 56.8326 91.8479 54.2187V41.2529C91.8479 38.6131 89.6999 36.491 87.0601 36.491Z" stroke="#FF9029" stroke-width="2" stroke-miterlimit="22.9256" stroke-linecap="round" stroke-linejoin="round"/>
<path d="M37.0083 71.0408H63.0435" stroke="#FF9029" stroke-width="2" stroke-miterlimit="22.9256" stroke-linecap="round" stroke-linejoin="round"/>
<path d="M37.0083 83.7478H57.0135" stroke="#FF9029" stroke-width="2" stroke-miterlimit="22.9256" stroke-linecap="round" stroke-linejoin="round"/>
<path d="M37.0083 77.3806H48.9131" stroke="#FF9029" stroke-width="2" stroke-miterlimit="22.9256" stroke-linecap="round" stroke-linejoin="round"/>
<path d="M68.7114 47.7225H69.669" stroke="#FF9029" stroke-width="2" stroke-miterlimit="22.9256" stroke-linecap="round" stroke-linejoin="round"/>
<path d="M75.4658 47.7225H76.3975" stroke="#FF9029" stroke-width="2" stroke-miterlimit="22.9256" stroke-linecap="round" stroke-linejoin="round"/>
<path d="M82.2207 47.7225H83.1524" stroke="#FF9029" stroke-width="2" stroke-miterlimit="22.9256" stroke-linecap="round" stroke-linejoin="round"/>
</svg>
