<svg width="100" height="100" viewBox="0 0 100 100" fill="none" xmlns="http://www.w3.org/2000/svg">
<path d="M83.1991 65.415V69.9185C83.1991 77.0201 77.3676 82.8515 70.266 82.8515H68.4185" stroke="white" stroke-width="2" stroke-miterlimit="22.9256"/>
<path d="M16.9746 39.9535C18.8799 23.4408 33.0254 10.5078 50 10.5078C66.9746 10.5078 81.1201 23.4408 83.0254 39.9535" stroke="white" stroke-width="2" stroke-miterlimit="22.9256"/>
<path fill-rule="evenodd" clip-rule="evenodd" d="M21.1319 39.3762H19.6884C13.1642 39.3762 7.91016 44.688 7.91016 51.1545V53.7527C7.91016 60.2769 13.1642 65.531 19.6884 65.531H21.1319C23.0372 65.531 24.6538 63.9721 24.6538 62.009V42.8982C24.6538 40.9351 23.0372 39.3762 21.1319 39.3762Z" stroke="white" stroke-width="2" stroke-miterlimit="22.9256"/>
<path fill-rule="evenodd" clip-rule="evenodd" d="M78.8686 39.3762H80.312C86.8363 39.3762 92.0903 44.688 92.0903 51.1545V53.7527C92.0903 60.2769 86.8363 65.531 80.312 65.531H78.8686C76.9633 65.531 75.3467 63.9721 75.3467 62.009V42.8982C75.3467 40.9351 76.9633 39.3762 78.8686 39.3762Z" stroke="white" stroke-width="2" stroke-miterlimit="22.9256"/>
<path fill-rule="evenodd" clip-rule="evenodd" d="M62.9334 77.4247H54.7925C51.7902 77.4247 49.3652 79.8496 49.3652 82.8519C49.3652 85.8542 51.7902 88.2792 54.7925 88.2792H62.9334C65.9357 88.2792 68.4184 85.8542 68.4184 82.8519C68.4184 79.8496 65.9357 77.4247 62.9334 77.4247Z" stroke="white" stroke-width="2" stroke-miterlimit="22.9256"/>
<path d="M36.4321 48.7295H63.5684" stroke="#FF9029" stroke-width="2" stroke-miterlimit="22.9256" stroke-linecap="round" stroke-linejoin="round"/>
<path d="M45.0928 57.3318V54.5604H54.908V56.2925L47.9219 73.0939" stroke="#FF9029" stroke-width="2" stroke-miterlimit="22.9256" stroke-linecap="round" stroke-linejoin="round"/>
<path d="M61.8364 39.6647H50.9819V37.9326L56.6401 24.249" stroke="#FF9029" stroke-width="2" stroke-miterlimit="22.9256" stroke-linecap="round" stroke-linejoin="round"/>
<path d="M59.6426 32.7363V42.8403" stroke="#FF9029" stroke-width="2" stroke-miterlimit="22.9256" stroke-linecap="round" stroke-linejoin="round"/>
<path d="M38.1641 28.6367C38.1641 27.0778 38.9724 25.6344 40.3003 24.8261C41.8015 23.96 43.7645 24.0177 45.2079 25.1147C47.1133 26.6159 47.4597 29.3873 46.0163 31.2926L38.3373 41.281V42.8399H47.171" stroke="#FF9029" stroke-width="2" stroke-miterlimit="22.9256" stroke-linecap="round" stroke-linejoin="round"/>
</svg>
