<svg width="132" height="20" viewBox="0 0 132 20" fill="none" xmlns="http://www.w3.org/2000/svg">
<g clip-path="url(#clip0_427_12822)">
<path fill-rule="evenodd" clip-rule="evenodd" d="M40.6307 9.75153C40.6307 10.8428 40.456 11.8743 40.1065 12.8451C39.7571 13.816 39.2564 14.6669 38.6036 15.3974C37.9511 16.1285 37.1465 16.7063 36.1906 17.1316C35.2348 17.5573 34.1501 17.7793 32.9367 17.7976V19.5731H28.993V17.7976C27.6877 17.6863 26.5572 17.4089 25.6013 16.9649C24.6454 16.5214 23.8546 15.9479 23.2295 15.2448C22.6044 14.5422 22.1449 13.7235 21.851 12.7897C21.5566 11.8555 21.4092 10.8428 21.4092 9.75153C21.4092 8.6603 21.5705 7.62444 21.8921 6.64397C22.2138 5.66398 22.6915 4.79909 23.3262 4.05025C23.9604 3.30093 24.7507 2.70426 25.6975 2.26074C26.6443 1.81673 27.7428 1.57643 28.993 1.53935V0.263197H32.9367V1.53935C34.2602 1.63181 35.409 1.89523 36.3835 2.33009C37.3581 2.76446 38.1622 3.33801 38.7969 4.05025C39.4312 4.76249 39.895 5.59945 40.1894 6.56114C40.4833 7.52283 40.6307 8.58614 40.6307 9.75153ZM32.9367 14.4406C33.727 14.3852 34.3612 14.2277 34.8394 13.9686C35.3171 13.71 35.6852 13.3724 35.9427 12.9559C36.1997 12.5398 36.3654 12.0592 36.4386 11.5131C36.5123 10.9675 36.5492 10.3713 36.5492 9.72408C36.5492 9.22421 36.508 8.70171 36.4252 8.1561C36.3424 7.61096 36.1677 7.10194 35.9011 6.63049C35.6344 6.15855 35.2668 5.76559 34.7977 5.45113C34.3291 5.13666 33.7088 4.96089 32.9367 4.92429V14.4406ZM28.993 4.97967C27.7246 5.14581 26.8147 5.63172 26.2633 6.43593C25.7114 7.24063 25.4538 8.33668 25.4907 9.72408C25.4907 10.3713 25.5457 10.9675 25.6563 11.5131C25.7664 12.0592 25.9502 12.5355 26.2077 12.9424C26.4653 13.3488 26.819 13.6821 27.2694 13.9412C27.7198 14.1998 28.2947 14.3664 28.993 14.4406V4.97967ZM49.9894 0.124023C51.1478 0.124023 52.1912 0.313761 53.1198 0.693237C54.048 1.07223 54.8382 1.59473 55.4911 2.26074C56.1435 2.92675 56.6447 3.72182 56.9941 4.64691C57.3435 5.57152 57.5182 6.57029 57.5182 7.64323V12.1931C57.5182 13.3402 57.3387 14.3804 56.9802 15.3141C56.6217 16.2484 56.1162 17.0439 55.4638 17.7003C54.8109 18.3571 54.0202 18.8609 53.0921 19.2124C52.1635 19.564 51.1296 19.7397 49.9894 19.7397C48.7396 19.7397 47.6502 19.536 46.7216 19.1291C45.7935 18.7222 45.0214 18.1722 44.4054 17.4783C43.7893 16.7848 43.3298 15.9801 43.0264 15.0647C42.7229 14.1492 42.5712 13.1919 42.5712 12.1931V7.64323C42.5712 6.64397 42.7229 5.69143 43.0264 4.78512C43.3298 3.87929 43.7893 3.07892 44.4054 2.38547C45.0214 1.69201 45.7935 1.14158 46.7216 0.734652C47.6502 0.327727 48.7396 0.124023 49.9894 0.124023ZM49.9483 4.11959C49.4107 4.11959 48.9507 4.20724 48.5649 4.38301C48.1739 4.55878 47.8527 4.79475 47.5947 5.09043C47.3376 5.3866 47.14 5.72418 47.0112 6.10317C46.8829 6.48265 46.8183 6.86597 46.8183 7.2546V12.4984C46.8183 12.9236 46.8829 13.3305 47.0112 13.7192C47.14 14.1073 47.3376 14.4497 47.5947 14.7459C47.8527 15.0416 48.1739 15.2819 48.5649 15.4668C48.9507 15.6517 49.4107 15.7442 49.9483 15.7442C50.9826 15.7442 51.782 15.4345 52.343 14.8147C52.9083 14.1954 53.1883 13.423 53.1883 12.4984V7.2546C53.1883 6.40367 52.9083 5.66832 52.343 5.04902C51.782 4.42924 50.9826 4.11959 49.9483 4.11959ZM74.9022 6.47783C74.9022 7.34706 74.7275 8.15176 74.378 8.89145C74.0291 9.63162 73.5552 10.2697 72.9579 10.8057C72.3605 11.3421 71.6573 11.763 70.8484 12.0684C70.0395 12.3732 69.1755 12.5258 68.256 12.5258H64.5057V19.5731H60.259V0.263197H68.1732C69.1846 0.263197 70.1041 0.406222 70.9312 0.693237C71.7583 0.97977 72.4663 1.39151 73.0545 1.9275C73.6428 2.46396 74.098 3.11601 74.4197 3.88362C74.7413 4.65124 74.9022 5.51566 74.9022 6.47783ZM70.6 6.39452C70.6 5.61775 70.3702 5.03987 69.9107 4.66039C69.4512 4.2814 68.7988 4.09166 67.953 4.09166H64.5057V8.69738H68.0631C68.7619 8.69738 69.3593 8.48934 69.8557 8.07327C70.352 7.65671 70.6 7.09761 70.6 6.39452ZM85.6126 4.09166V19.5731H81.366V4.09166H76.1261V0.263197H90.852V4.09166H85.6126Z" fill="white"/>
<path d="M114.028 15.297C115.169 15.297 116.01 14.4735 116.01 13.0428C116.01 11.6775 115.212 10.789 114.028 10.789C112.886 10.789 112.046 11.6125 112.046 13.0428C112.046 14.4735 112.886 15.297 114.028 15.297Z" fill="white"/>
<path d="M125.006 15.297C126.126 15.297 126.859 14.5169 126.859 13.2162V6.77903C126.859 5.4788 126.126 4.67699 125.006 4.67699C123.886 4.67699 123.132 5.4788 123.132 6.77903V13.2162C123.132 14.5169 123.886 15.297 125.006 15.297Z" fill="white"/>
<path fill-rule="evenodd" clip-rule="evenodd" d="M130.386 0H97.1866C96.3073 0 95.5889 0.722833 95.5889 1.60699V18.2288C95.5889 19.1125 96.3073 19.8358 97.1866 19.8358H130.386C131.266 19.8358 131.984 19.1125 131.984 18.2288V1.60699C131.984 0.723315 131.266 0 130.386 0ZM105.958 9.72671C107.057 10.3118 107.94 11.3742 107.94 13.2378C107.94 16.3155 105.7 17.8329 103.071 17.8329C100.572 17.8329 98.2239 16.5106 98.1808 13.2812H100.981C101.025 14.6686 101.972 15.297 103.071 15.297C104.277 15.297 105.139 14.5385 105.139 13.1511C105.139 11.8726 104.364 11.0274 102.985 11.0274H102.576V8.57817H102.985C104.342 8.57817 104.924 7.73302 104.924 6.64901C104.924 5.34878 104.062 4.67699 103.05 4.67699C101.994 4.67699 101.218 5.37045 101.154 6.54066H98.3531C98.4177 3.7885 100.464 2.14105 103.05 2.14105C105.764 2.14105 107.724 3.96186 107.724 6.56233C107.724 8.23144 106.97 9.18495 105.958 9.72671ZM114.782 8.44815C116.85 8.44815 118.81 10.1601 118.81 13.0211C118.81 16.0555 116.742 17.8329 114.028 17.8329C111.313 17.8329 109.245 16.1205 109.245 13.0645C109.245 11.6559 109.849 10.3556 110.538 8.94657L113.769 2.27107H116.828L113.64 8.64318C114.006 8.49149 114.415 8.44815 114.782 8.44815ZM129.659 6.73569V13.2378C129.659 16.1855 127.505 17.8329 125.006 17.8329C122.507 17.8329 120.331 16.1855 120.331 13.2378V6.73569C120.331 3.78849 122.507 2.14105 125.006 2.14105C127.505 2.14105 129.659 3.78849 129.659 6.73569Z" fill="white"/>
<path fill-rule="evenodd" clip-rule="evenodd" d="M7.76846 12.1678C6.2918 12.5626 5.55323 13.155 5.46085 13.6486C5.46085 14.4383 6.93751 14.8337 8.50655 15.0312L7.76846 15.9196C6.2918 16.7094 6.3837 17.3017 3.61514 16.512C3.24609 16.512 2.96895 16.4133 2.69228 16.3145C0.846098 15.8209 0.015625 15.2286 0.015625 14.735C0.015625 14.6363 0.015625 14.6363 0.108006 14.5375C0.753717 13.155 1.39991 13.0562 2.78467 13.0562C4.16895 12.9575 5.83037 12.4639 7.76846 12.069V12.1678Z" fill="#6F6F6F"/>
<path fill-rule="evenodd" clip-rule="evenodd" d="M12.0888 5.15796C9.21018 5.65157 7.25965 6.44134 7.25965 7.32983C7.16679 8.51497 9.95306 9.00858 12.646 9.1073L12.0888 10.5886C10.6031 11.2797 8.28111 11.7733 6.70249 11.5758C4.28765 11.1809 4.38051 11.1809 3.35906 10.8848H3.2662C1.03708 10.292 0.015625 9.30474 0.015625 8.81113C0.015625 8.71241 0.015625 8.51497 0.108485 8.51497L1.12994 6.54006C5.03053 6.7375 8.46682 5.65157 12.0888 5.15796Z" fill="#6F6F6F"/>
<path fill-rule="evenodd" clip-rule="evenodd" d="M6.68909 2.22051C6.68909 2.41506 6.54357 2.57879 6.35115 2.59565C5.60301 2.66259 4.91948 2.67366 4.23548 2.75938V1.01514C4.23548 0.78736 4.03779 0.610143 3.81282 0.640482C1.50138 0.956391 0.015625 1.56606 0.015625 2.12516V8.81077C0.015625 8.02099 3.94111 7.20233 8.74971 7.20233L16.4614 7.09157C17.0832 7.08242 17.5824 6.57292 17.5824 5.94736C17.5824 4.12126 17.5824 2.54845 17.5824 0.644335C17.5824 0.433889 17.4125 0.262451 17.2033 0.262451H13.7416C13.532 0.262451 13.3625 0.433408 13.3625 0.644335V2.0534C13.3625 2.26385 13.1926 2.4348 12.9834 2.4348H10.9089V0.644335C10.9089 0.433408 10.739 0.262451 10.5298 0.265822C9.39399 0.282677 8.20404 0.369359 7.06818 0.386696C6.85853 0.390067 6.68909 0.560542 6.68909 0.771469V2.22051Z" fill="white"/>
<path fill-rule="evenodd" clip-rule="evenodd" d="M6.68909 13.6482C2.95985 13.6482 0.015625 14.1423 0.015625 14.7347V10.5171C0.015625 9.92475 3.25423 9.10657 6.98346 9.10657L12.9758 8.98714C13.1878 8.98281 13.3625 9.15473 13.3625 9.36854V12.3986C13.3625 13.0217 12.8662 13.5307 12.2463 13.5423L6.68909 13.6482Z" fill="white"/>
<path fill-rule="evenodd" clip-rule="evenodd" d="M5.02048 15.0312C2.46923 15.0312 0.015625 15.8494 0.015625 16.4417V20C0.670909 19.647 2.90433 19.5729 3.72332 19.5729H7.90679C8.53527 19.5729 9.04457 19.0605 9.04457 18.4287V15.4126C9.04457 15.2017 8.87464 15.0312 8.66547 15.0312H5.02048Z" fill="white"/>
</g>
<defs>
<clipPath id="clip0_427_12822">
<rect width="132" height="20" fill="white"/>
</clipPath>
</defs>
</svg>
