<svg width="52" height="52" viewBox="0 0 52 52" fill="none" xmlns="http://www.w3.org/2000/svg">
<path fill-rule="evenodd" clip-rule="evenodd" d="M5.2959 42.8519C5.2959 40.4445 7.22182 38.5186 9.62923 38.5186H42.37C44.7774 38.5186 46.7033 40.4445 46.7033 42.8519V46.463H5.2959V42.8519Z" stroke="#202020" stroke-width="2" stroke-miterlimit="22.9256" stroke-linecap="round" stroke-linejoin="round"/>
<path d="M42.3696 38.518V37.555C42.3696 35.1476 40.4437 33.2217 38.0363 33.2217H13.7215C11.5548 33.2217 9.62891 35.1476 9.62891 37.555V38.518" stroke="#202020" stroke-width="2" stroke-miterlimit="22.9256" stroke-linecap="round" stroke-linejoin="round"/>
<path d="M33.2223 24.7964C33.2223 20.9446 30.0927 17.5742 26.0001 17.5742C21.9075 17.5742 18.5371 20.9446 18.5371 24.7964" stroke="#202020" stroke-width="2" stroke-miterlimit="22.9256" stroke-linecap="round" stroke-linejoin="round"/>
<path d="M38.0365 33.2218V24.7958C38.0365 18.0551 32.7402 12.7588 25.9995 12.7588C19.2587 12.7588 13.7217 18.0551 13.7217 24.7958V33.2218" stroke="#202020" stroke-width="2" stroke-miterlimit="22.9256" stroke-linecap="round" stroke-linejoin="round"/>
<path d="M28.6479 33.2215V24.7956C28.6479 23.3512 27.4442 22.1475 25.9997 22.1475C24.5553 22.1475 23.3516 23.3512 23.3516 24.7956V33.2215" stroke="#202020" stroke-width="2" stroke-miterlimit="22.9256" stroke-linecap="round" stroke-linejoin="round"/>
<path d="M4.81445 24.5557H10.5922" stroke="#202020" stroke-width="2" stroke-miterlimit="22.9256" stroke-linecap="round" stroke-linejoin="round"/>
<path d="M41.4072 24.5557H47.185" stroke="#202020" stroke-width="2" stroke-miterlimit="22.9256" stroke-linecap="round" stroke-linejoin="round"/>
<path d="M26 9.14789V3.37012" stroke="#202020" stroke-width="2" stroke-miterlimit="22.9256" stroke-linecap="round" stroke-linejoin="round"/>
<path d="M39.2402 16.8518L44.5365 13.9629" stroke="#202020" stroke-width="2" stroke-miterlimit="22.9256" stroke-linecap="round" stroke-linejoin="round"/>
<path d="M12.7592 16.8518L7.46289 13.9629" stroke="#202020" stroke-width="2" stroke-miterlimit="22.9256" stroke-linecap="round" stroke-linejoin="round"/>
<path d="M33.7031 11.3143L36.592 6.25879" stroke="#202020" stroke-width="2" stroke-miterlimit="22.9256" stroke-linecap="round" stroke-linejoin="round"/>
<path d="M18.2961 11.3143L15.4072 6.25879" stroke="#202020" stroke-width="2" stroke-miterlimit="22.9256" stroke-linecap="round" stroke-linejoin="round"/>
</svg>
