<svg width="52" height="52" viewBox="0 0 52 52" fill="none" xmlns="http://www.w3.org/2000/svg">
<path fill-rule="evenodd" clip-rule="evenodd" d="M17.2466 9.92969H34.7541C35.538 9.92969 36.3219 10.7136 36.3219 11.4975V26.9146C36.3219 27.6985 35.538 28.2211 34.7541 28.2211H17.2466C16.4626 28.2211 15.6787 27.6985 15.6787 26.9146V11.4975C15.6787 10.7136 16.4626 9.92969 17.2466 9.92969Z" stroke="#202020" stroke-width="2" stroke-miterlimit="22.9256" stroke-linecap="round" stroke-linejoin="round"/>
<path d="M24.0399 24.5625H19.5977" stroke="#202020" stroke-width="2" stroke-miterlimit="22.9256" stroke-linecap="round" stroke-linejoin="round"/>
<path d="M23.5175 6.5332L22.2109 9.93019V16.9855L26.1305 14.895L29.7888 16.9855V9.93019L28.4823 6.5332" stroke="#202020" stroke-width="2" stroke-miterlimit="22.9256" stroke-linecap="round" stroke-linejoin="round"/>
<path d="M15.9395 10.975L17.246 7.83932C17.5073 7.0554 18.2912 6.27148 19.0751 6.27148H32.9244C33.7083 6.27148 34.4922 7.0554 35.0148 7.83932L36.3214 10.975" stroke="#202020" stroke-width="2" stroke-miterlimit="22.9256" stroke-linecap="round" stroke-linejoin="round"/>
<path fill-rule="evenodd" clip-rule="evenodd" d="M7.05514 28.2217H24.5627C25.3466 28.2217 26.1305 29.0056 26.1305 29.7895V45.2066C26.1305 45.9905 25.3466 46.7744 24.5627 46.7744H7.05514C6.00992 46.7744 5.4873 45.9905 5.4873 45.2066V29.7895C5.4873 29.0056 6.00992 28.2217 7.05514 28.2217Z" stroke="#202020" stroke-width="2" stroke-miterlimit="22.9256" stroke-linecap="round" stroke-linejoin="round"/>
<path d="M13.8494 42.8545H9.40723" stroke="#202020" stroke-width="2" stroke-miterlimit="22.9256" stroke-linecap="round" stroke-linejoin="round"/>
<path d="M13.3261 24.8242L12.0195 28.2212V35.2765L15.6778 33.186L19.5974 35.2765V28.2212" stroke="#202020" stroke-width="2" stroke-miterlimit="22.9256" stroke-linecap="round" stroke-linejoin="round"/>
<path d="M5.4873 29.2664L6.79384 26.1308C7.31645 25.3468 8.10037 24.8242 8.88429 24.8242H15.6783" stroke="#202020" stroke-width="2" stroke-miterlimit="22.9256" stroke-linecap="round" stroke-linejoin="round"/>
<path fill-rule="evenodd" clip-rule="evenodd" d="M27.4374 28.2217H45.2062C45.9902 28.2217 46.7741 29.0056 46.7741 29.7895V45.2066C46.7741 45.9905 45.9902 46.7744 45.2062 46.7744H27.4374C26.6535 46.7744 26.1309 45.9905 26.1309 45.2066V29.7895C26.1309 29.0056 26.6535 28.2217 27.4374 28.2217Z" stroke="#202020" stroke-width="2" stroke-miterlimit="22.9256" stroke-linecap="round" stroke-linejoin="round"/>
<path d="M34.4926 42.8545H29.7891" stroke="#202020" stroke-width="2" stroke-miterlimit="22.9256" stroke-linecap="round" stroke-linejoin="round"/>
<path d="M38.6731 24.8242L40.241 28.2212V35.2765L36.3214 33.186L32.6631 35.2765V28.2212" stroke="#202020" stroke-width="2" stroke-miterlimit="22.9256" stroke-linecap="round" stroke-linejoin="round"/>
<path d="M46.5122 29.2664L45.2057 26.1308C44.9444 25.3468 44.1605 24.8242 43.1153 24.8242H36.3213" stroke="#202020" stroke-width="2" stroke-miterlimit="22.9256" stroke-linecap="round" stroke-linejoin="round"/>
</svg>
