<svg width="41" height="41" viewBox="0 0 41 41" fill="none" xmlns="http://www.w3.org/2000/svg">
<circle cx="20.001" cy="20.999" r="19.037" stroke="#FF9029" stroke-opacity="0.5" stroke-width="0.588235"/>
<path d="M40.2758 17.4243C39.7874 14.6544 38.7367 12.014 37.1884 9.66594C35.6401 7.31787 33.6272 5.31193 31.2737 3.77187C28.9202 2.23181 26.2762 1.19029 23.5047 0.711559C20.7331 0.232832 17.8929 0.327052 15.1592 0.988406L15.5891 2.76534C18.08 2.16271 20.6681 2.07686 23.1935 2.51307C25.7189 2.94929 28.1282 3.89833 30.2727 5.30163C32.4171 6.70494 34.2513 8.53276 35.6621 10.6723C37.0729 12.8119 38.0303 15.2178 38.4754 17.7417L40.2758 17.4243Z" fill="#F1790A"/>
<circle cx="20.0009" cy="21.0005" r="8.2545" stroke="white" stroke-width="1.17647"/>
<path d="M23.0293 21.0008L18.1063 18.1584V23.8431L23.0293 21.0008Z" fill="white"/>
</svg>
