<svg width="100" height="100" viewBox="0 0 100 100" fill="none" xmlns="http://www.w3.org/2000/svg">
<path fill-rule="evenodd" clip-rule="evenodd" d="M40.4401 43.4176H59.5602C61.2184 43.4176 62.572 44.7712 62.572 46.4294V58.7137C62.572 60.3719 61.2184 61.7256 59.5602 61.7256H40.4401C38.7819 61.7256 37.4282 60.3719 37.4282 58.7137V46.4294C37.4282 44.7712 38.7819 43.4176 40.4401 43.4176Z" stroke="#FF9029" stroke-width="2" stroke-miterlimit="22.9256" stroke-linecap="round" stroke-linejoin="round"/>
<path d="M49.9831 56.2433C52.0203 56.2433 53.6718 54.5918 53.6718 52.5546C53.6718 50.5174 52.0203 48.866 49.9831 48.866C47.9459 48.866 46.2944 50.5174 46.2944 52.5546C46.2944 54.5918 47.9459 56.2433 49.9831 56.2433Z" stroke="#FF9029" stroke-width="2" stroke-miterlimit="22.9256" stroke-linecap="round" stroke-linejoin="round"/>
<path d="M57.3942 43.4176L57.2926 39.6613C57.1911 35.6003 53.9762 32.2839 49.9153 32.2839C45.8544 32.2839 42.4026 35.6003 42.5041 39.6613L42.6057 43.4176" stroke="#FF9029" stroke-width="2" stroke-miterlimit="22.9256" stroke-linecap="round" stroke-linejoin="round"/>
<path fill-rule="evenodd" clip-rule="evenodd" d="M24.0273 27.7157C24.0273 24.1624 26.9038 21.2859 30.4571 21.2859H69.5434C73.0629 21.2859 75.9732 24.1624 75.9732 27.7157V46.9373C75.9732 66.1928 64.4673 73.4686 49.9834 83.7224C35.4994 73.4686 24.0273 66.1928 24.0273 46.9373V27.7157Z" stroke="white" stroke-width="2" stroke-miterlimit="22.9256" stroke-linecap="round" stroke-linejoin="round"/>
<path fill-rule="evenodd" clip-rule="evenodd" d="M49.9831 3.04565C52.2166 3.04565 54.044 4.83922 54.044 7.07273C54.044 9.30623 52.2166 11.1336 49.9831 11.1336C47.7496 11.1336 45.9561 9.30623 45.9561 7.07273C45.9561 4.83922 47.7496 3.04565 49.9831 3.04565Z" stroke="white" stroke-width="2" stroke-miterlimit="22.9256" stroke-linecap="round" stroke-linejoin="round"/>
<path fill-rule="evenodd" clip-rule="evenodd" d="M49.9829 11.0994V21.2855V11.0994Z" stroke="white" stroke-width="2" stroke-miterlimit="22.9256" stroke-linecap="round" stroke-linejoin="round"/>
<path fill-rule="evenodd" clip-rule="evenodd" d="M49.9831 96.954C52.2166 96.954 54.044 95.1604 54.044 92.9269C54.044 90.6934 52.2166 88.866 49.9831 88.866C47.7496 88.866 45.9561 90.6934 45.9561 92.9269C45.9561 95.1604 47.7496 96.954 49.9831 96.954Z" stroke="white" stroke-width="2" stroke-miterlimit="22.9256" stroke-linecap="round" stroke-linejoin="round"/>
<path fill-rule="evenodd" clip-rule="evenodd" d="M49.9829 88.8662V83.7224V88.8662Z" stroke="white" stroke-width="2" stroke-miterlimit="22.9256" stroke-linecap="round" stroke-linejoin="round"/>
<path fill-rule="evenodd" clip-rule="evenodd" d="M3.0459 49.983C3.0459 47.7495 4.83947 45.9559 7.07297 45.9559C9.30647 45.9559 11.1339 47.7495 11.1339 49.983C11.1339 52.2165 9.30647 54.0439 7.07297 54.0439C4.83947 54.0439 3.0459 52.2165 3.0459 49.983Z" stroke="white" stroke-width="2" stroke-miterlimit="22.9256" stroke-linecap="round" stroke-linejoin="round"/>
<path fill-rule="evenodd" clip-rule="evenodd" d="M11.1338 49.9833H24.1287H11.1338Z" stroke="white" stroke-width="2" stroke-miterlimit="22.9256" stroke-linecap="round" stroke-linejoin="round"/>
<path fill-rule="evenodd" clip-rule="evenodd" d="M96.9547 49.983C96.9547 47.7495 95.1611 45.9559 92.9276 45.9559C90.6941 45.9559 88.8667 47.7495 88.8667 49.983C88.8667 52.2165 90.6941 54.0439 92.9276 54.0439C95.1611 54.0439 96.9547 52.2165 96.9547 49.983Z" stroke="white" stroke-width="2" stroke-miterlimit="22.9256" stroke-linecap="round" stroke-linejoin="round"/>
<path fill-rule="evenodd" clip-rule="evenodd" d="M88.8665 49.9833H75.8716H88.8665Z" stroke="white" stroke-width="2" stroke-miterlimit="22.9256" stroke-linecap="round" stroke-linejoin="round"/>
<path fill-rule="evenodd" clip-rule="evenodd" d="M16.7852 83.2152C15.1947 81.6247 15.1947 79.0528 16.7852 77.4961C18.3757 75.9056 20.9138 75.9056 22.5043 77.4961C24.0948 79.0528 24.0948 81.6247 22.5043 83.2152C20.9138 84.7719 18.3757 84.7719 16.7852 83.2152Z" stroke="white" stroke-width="2" stroke-miterlimit="22.9256" stroke-linecap="round" stroke-linejoin="round"/>
<path fill-rule="evenodd" clip-rule="evenodd" d="M22.5044 77.4957L31.4384 68.5278L22.5044 77.4957Z" stroke="white" stroke-width="2" stroke-miterlimit="22.9256" stroke-linecap="round" stroke-linejoin="round"/>
<path fill-rule="evenodd" clip-rule="evenodd" d="M83.2147 16.7854C81.6242 15.1949 79.0523 15.1949 77.4956 16.7854C75.9051 18.3759 75.9051 20.914 77.4956 22.5045C79.0523 24.0951 81.6242 24.0951 83.2147 22.5045C84.7714 20.914 84.7714 18.3759 83.2147 16.7854Z" stroke="white" stroke-width="2" stroke-miterlimit="22.9256" stroke-linecap="round" stroke-linejoin="round"/>
<path fill-rule="evenodd" clip-rule="evenodd" d="M77.4959 22.5045L75.2285 24.738L77.4959 22.5045Z" stroke="white" stroke-width="2" stroke-miterlimit="22.9256" stroke-linecap="round" stroke-linejoin="round"/>
<path fill-rule="evenodd" clip-rule="evenodd" d="M83.2152 83.2152C84.7719 81.6247 84.7719 79.0528 83.2152 77.4961C81.6247 75.9056 79.0528 75.9056 77.4961 77.4961C75.9056 79.0528 75.9056 81.6247 77.4961 83.2152C79.0528 84.7719 81.6247 84.7719 83.2152 83.2152Z" stroke="white" stroke-width="2" stroke-miterlimit="22.9256" stroke-linecap="round" stroke-linejoin="round"/>
<path fill-rule="evenodd" clip-rule="evenodd" d="M77.4962 77.4957L68.5283 68.5278L77.4962 77.4957Z" stroke="white" stroke-width="2" stroke-miterlimit="22.9256" stroke-linecap="round" stroke-linejoin="round"/>
<path fill-rule="evenodd" clip-rule="evenodd" d="M16.7852 16.7854C18.3757 15.1949 20.9138 15.1949 22.5043 16.7854C24.0948 18.3759 24.0948 20.914 22.5043 22.5045C20.9138 24.0951 18.3757 24.0951 16.7852 22.5045C15.1947 20.914 15.1947 18.3759 16.7852 16.7854Z" stroke="white" stroke-width="2" stroke-miterlimit="22.9256" stroke-linecap="round" stroke-linejoin="round"/>
<path fill-rule="evenodd" clip-rule="evenodd" d="M22.5044 22.5045L24.7379 24.738L22.5044 22.5045Z" stroke="white" stroke-width="2" stroke-miterlimit="22.9256" stroke-linecap="round" stroke-linejoin="round"/>
</svg>
