<svg width="100" height="100" viewBox="0 0 100 100" fill="none" xmlns="http://www.w3.org/2000/svg">
<path d="M73.7041 67.7257V82.5668C73.7041 87.2909 69.8162 91.1789 65.0503 91.1789H29.5152C24.7493 91.1789 20.8613 87.2909 20.8613 82.5668V23.5367" stroke="white" stroke-width="2" stroke-miterlimit="22.9256" stroke-linecap="round" stroke-linejoin="round"/>
<path d="M13.7544 14.8826H65.8865" stroke="white" stroke-width="2" stroke-miterlimit="22.9256" stroke-linecap="round" stroke-linejoin="round"/>
<path fill-rule="evenodd" clip-rule="evenodd" d="M6.85645 43.7287H20.8615V21.906C20.8615 18.0598 17.726 14.8826 13.8799 14.8826C9.9919 14.8826 6.85645 18.0598 6.85645 21.906V43.7287Z" stroke="white" stroke-width="2" stroke-miterlimit="22.9256" stroke-linecap="round" stroke-linejoin="round"/>
<path d="M30.0586 26.0037H48.9549" stroke="white" stroke-width="2" stroke-miterlimit="22.9256" stroke-linecap="round" stroke-linejoin="round"/>
<path d="M30.0586 34.6571H43.5619" stroke="white" stroke-width="2" stroke-miterlimit="22.9256" stroke-linecap="round" stroke-linejoin="round"/>
<path d="M30.0586 43.3113H43.5619" stroke="white" stroke-width="2" stroke-miterlimit="22.9256" stroke-linecap="round" stroke-linejoin="round"/>
<path fill-rule="evenodd" clip-rule="evenodd" d="M64.5068 82.6505V64.5066C64.5068 63.0434 63.2944 61.7892 61.8312 61.7892H58.7375C57.2743 61.7892 56.0201 63.0434 56.0201 64.5066V82.6505H64.5068ZM38.5452 82.6505V72.2408C38.5452 70.7775 37.3328 69.5652 35.8696 69.5652H32.776C31.271 69.5652 30.0586 70.7775 30.0586 72.2408V82.6505H38.5452ZM51.5469 82.6505V56.2709C51.5469 54.8076 50.2927 53.5535 48.8295 53.5535H45.7358C44.2726 53.5535 43.0603 54.8076 43.0603 56.2709V82.6505H51.5469Z" stroke="white" stroke-width="2" stroke-miterlimit="22.9256" stroke-linecap="round" stroke-linejoin="round"/>
<path fill-rule="evenodd" clip-rule="evenodd" d="M62.7093 48.6204C61.9149 44.8996 61.4551 40.9281 61.4551 36.7056C61.4551 22.9097 66.0537 12.6672 73.537 5.30933C81.0203 12.6672 85.619 22.9097 85.619 36.7056C85.619 40.9281 85.1591 44.8996 84.3648 48.6204H62.7093Z" stroke="#FF9029" stroke-width="2" stroke-miterlimit="22.9256" stroke-linecap="round" stroke-linejoin="round"/>
<path d="M73.5373 35.2007C76.3542 35.2007 78.6377 32.9172 78.6377 30.1003C78.6377 27.2835 76.3542 25 73.5373 25C70.7205 25 68.437 27.2835 68.437 30.1003C68.437 32.9172 70.7205 35.2007 73.5373 35.2007Z" stroke="#FF9029" stroke-width="2" stroke-miterlimit="22.9256" stroke-linecap="round" stroke-linejoin="round"/>
<path d="M67.1829 48.6208L65.0508 56.1459H82.024L79.8919 48.6208" stroke="#FF9029" stroke-width="2" stroke-miterlimit="22.9256" stroke-linecap="round" stroke-linejoin="round"/>
<path d="M68.646 56.1455C68.646 56.1455 68.0189 57.7759 68.6042 60.2007C69.0641 62.2492 71.1126 64.5067 73.7045 67.7258" stroke="white" stroke-width="2" stroke-miterlimit="22.9256" stroke-linecap="round" stroke-linejoin="round"/>
<path d="M68.646 56.1455C68.646 56.1455 68.0189 57.7759 68.6042 60.2007C69.0641 62.2492 71.1126 64.5067 73.7045 67.7258C76.2965 64.5067 78.3032 62.2492 78.8049 60.2007C79.3484 57.7759 78.7631 56.1455 78.7631 56.1455" stroke="#FF9029" stroke-width="2" stroke-miterlimit="22.9256" stroke-linecap="round" stroke-linejoin="round"/>
<path d="M62.1242 45.3599C59.4068 46.2378 56.6476 47.1157 53.9302 47.9936C53.972 37.7093 57.2329 31.1876 62.3332 26.8816" stroke="#FF9029" stroke-width="2" stroke-miterlimit="22.9256" stroke-linecap="round" stroke-linejoin="round"/>
<path d="M84.9502 45.3599C87.6676 46.2378 90.4268 47.1157 93.1442 47.9936C93.1024 37.7093 89.8415 31.1876 84.7412 26.8816" stroke="#FF9029" stroke-width="2" stroke-miterlimit="22.9256" stroke-linecap="round" stroke-linejoin="round"/>
</svg>
