<svg width="30" height="30" viewBox="0 0 30 30" fill="none" xmlns="http://www.w3.org/2000/svg">
<path d="M21.1818 3H8.81818C5.60489 3 3 5.60489 3 8.81818V21.1818C3 24.3951 5.60489 27 8.81818 27H21.1818C24.3951 27 27 24.3951 27 21.1818V8.81818C27 5.60489 24.3951 3 21.1818 3Z" stroke="white" stroke-width="1.5" stroke-linejoin="round"/>
<path d="M27 15C24.8729 15 22.8751 14.4466 21.1426 13.4758M15 3C15 5.48022 15.7525 7.78469 17.0415 9.69761" stroke="white" stroke-width="1.5" stroke-linejoin="round"/>
<path d="M8.79785 15.8124H18.9935C20.2131 15.8124 21.2018 14.8237 21.2018 13.6041V12.0105C21.2018 10.7908 20.2131 9.80212 18.9935 9.80212H8.79785V15.8124ZM8.79785 15.8124V20.668M17.3388 15.9504L20.6892 20.668" stroke="white" stroke-width="1.5" stroke-linecap="round" stroke-linejoin="round"/>
</svg>
