<svg width="224" height="34" viewBox="0 0 224 34" fill="none" xmlns="http://www.w3.org/2000/svg">
<g clip-path="url(#clip0_2172_1659)">
<path fill-rule="evenodd" clip-rule="evenodd" d="M68.9484 16.5777C68.9484 18.4328 68.6519 20.1864 68.0589 21.8368C67.466 23.4872 66.6164 24.9338 65.5084 26.1757C64.4013 27.4185 63.0359 28.4009 61.4138 29.1237C59.7917 29.8474 57.9511 30.2249 55.892 30.256V33.2744H49.1997V30.256C46.9846 30.0669 45.066 29.5953 43.4439 28.8405C41.8218 28.0865 40.48 27.1115 39.4191 25.9162C38.3583 24.7218 37.5785 23.3301 37.0798 21.7427C36.5803 20.1544 36.3301 18.4328 36.3301 16.5777C36.3301 14.7226 36.6038 12.9617 37.1497 11.2949C37.6955 9.62887 38.5061 8.15854 39.5832 6.88552C40.6595 5.61167 42.0005 4.59735 43.6072 3.84336C45.2139 3.08855 47.078 2.68003 49.1997 2.617V0.447532H55.892V2.617C58.1379 2.77418 60.0873 3.22199 61.7411 3.96124C63.3949 4.69968 64.7595 5.67471 65.8366 6.88552C66.9128 8.09632 67.6999 9.51917 68.1995 11.154C68.6982 12.7889 68.9484 14.5965 68.9484 16.5777ZM55.892 24.549C57.233 24.4549 58.3093 24.1872 59.1207 23.7468C59.9314 23.3071 60.556 22.7332 60.993 22.0251C61.4292 21.3178 61.7102 20.5007 61.8345 19.5724C61.9596 18.6448 62.0222 17.6313 62.0222 16.531C62.0222 15.6813 61.9523 14.793 61.8118 13.8655C61.6713 12.9387 61.3748 12.0734 60.9223 11.2719C60.4699 10.4696 59.8461 9.8016 59.0501 9.26702C58.2549 8.73243 57.2022 8.43361 55.892 8.3714V24.549ZM49.1997 8.46554C47.0472 8.74798 45.503 9.57401 44.5673 10.9412C43.6308 12.3092 43.1938 14.1725 43.2563 16.531C43.2563 17.6313 43.3497 18.6448 43.5373 19.5724C43.7242 20.5007 44.0361 21.3104 44.4731 22.0022C44.9101 22.6931 45.5103 23.2596 46.2747 23.7001C47.039 24.1397 48.0146 24.423 49.1997 24.549V8.46554ZM84.8299 0.210938C86.7956 0.210938 88.5663 0.533492 90.1421 1.1786C91.7171 1.82289 93.0582 2.71114 94.1661 3.84336C95.2732 4.97557 96.1237 6.32719 96.7166 7.89984C97.3096 9.47168 97.6061 11.1696 97.6061 12.9936V20.7283C97.6061 22.6784 97.3014 24.4467 96.6931 26.0341C96.0847 27.6223 95.2269 28.9748 94.1198 30.0906C93.0119 31.2073 91.67 32.0636 90.095 32.6612C88.5192 33.2588 86.7647 33.5576 84.8299 33.5576C82.709 33.5576 80.8603 33.2113 79.2845 32.5196C77.7095 31.8278 76.3993 30.8929 75.3539 29.7132C74.3085 28.5343 73.5288 27.1663 73.0138 25.61C72.4988 24.0538 72.2413 22.4262 72.2413 20.7283V12.9936C72.2413 11.2949 72.4988 9.67553 73.0138 8.1348C73.5288 6.59489 74.3085 5.23427 75.3539 4.05539C76.3993 2.87651 77.7095 1.94078 79.2845 1.24901C80.8603 0.557233 82.709 0.210938 84.8299 0.210938ZM84.76 7.00341C83.8478 7.00341 83.0672 7.1524 82.4126 7.45122C81.7489 7.75003 81.2039 8.15117 80.7661 8.65384C80.3299 9.15731 79.9944 9.7312 79.7759 10.3755C79.5582 11.0206 79.4486 11.6723 79.4486 12.3329V21.2474C79.4486 21.9702 79.5582 22.662 79.7759 23.3227C79.9944 23.9825 80.3299 24.5646 80.7661 25.0681C81.2039 25.5707 81.7489 25.9793 82.4126 26.2936C83.0672 26.608 83.8478 26.7652 84.76 26.7652C86.5153 26.7652 87.8718 26.2388 88.8238 25.1851C89.7831 24.1323 90.2583 22.8192 90.2583 21.2474V12.3329C90.2583 10.8863 89.7831 9.63623 88.8238 8.58343C87.8718 7.52981 86.5153 7.00341 84.76 7.00341ZM127.106 11.0124C127.106 12.4901 126.81 13.8581 126.217 15.1156C125.624 16.3739 124.82 17.4586 123.807 18.3698C122.793 19.2818 121.6 19.9973 120.227 20.5163C118.854 21.0345 117.388 21.294 115.828 21.294H109.464V33.2744H102.257V0.447532H115.687C117.404 0.447532 118.964 0.690676 120.367 1.1786C121.771 1.66571 122.972 2.36567 123.971 3.27684C124.969 4.18883 125.741 5.29731 126.287 6.60226C126.833 7.90721 127.106 9.37672 127.106 11.0124ZM119.805 10.8708C119.805 9.55027 119.415 8.56787 118.636 7.92277C117.856 7.27848 116.749 6.95592 115.314 6.95592H109.464V14.7856H115.5C116.686 14.7856 117.7 14.432 118.542 13.7246C119.385 13.0165 119.805 12.066 119.805 10.8708ZM145.281 6.95592V33.2744H138.075V6.95592H129.183V0.447532H154.173V6.95592H145.281Z" fill="#202020"/>
<path d="M193.502 26.0049C195.439 26.0049 196.866 24.605 196.866 22.1727C196.866 19.8518 195.513 18.3414 193.502 18.3414C191.565 18.3414 190.139 19.7413 190.139 22.1727C190.139 24.605 191.565 26.0049 193.502 26.0049Z" fill="#202020"/>
<path d="M212.132 26.0049C214.032 26.0049 215.276 24.6787 215.276 22.4675V11.5244C215.276 9.31396 214.032 7.95088 212.132 7.95088C210.231 7.95088 208.952 9.31396 208.952 11.5244V22.4675C208.952 24.6787 210.231 26.0049 212.132 26.0049Z" fill="#202020"/>
<path fill-rule="evenodd" clip-rule="evenodd" d="M221.262 0H164.923C163.431 0 162.212 1.22882 162.212 2.73189V30.9889C162.212 32.4912 163.431 33.7208 164.923 33.7208H221.262C222.754 33.7208 223.974 32.4912 223.974 30.9889V2.73189C223.974 1.22964 222.754 0 221.262 0ZM179.808 16.5354C181.672 17.5301 183.171 19.3361 183.171 22.5043C183.171 27.7364 179.369 30.316 174.909 30.316C170.668 30.316 166.683 28.068 166.61 22.578H171.363C171.436 24.9366 173.044 26.0049 174.909 26.0049C176.956 26.0049 178.418 24.7155 178.418 22.3569C178.418 20.1834 177.102 18.7466 174.763 18.7466H174.069V14.5829H174.763C177.066 14.5829 178.053 13.1461 178.053 11.3033C178.053 9.09292 176.591 7.95088 174.873 7.95088C173.081 7.95088 171.765 9.12976 171.655 11.1191H166.903C167.012 6.44044 170.486 3.63979 174.873 3.63979C179.479 3.63979 182.805 6.73516 182.805 11.156C182.805 13.9935 181.526 15.6144 179.808 16.5354ZM194.781 14.3618C198.291 14.3618 201.618 17.2722 201.618 22.1359C201.618 27.2943 198.109 30.316 193.502 30.316C188.896 30.316 185.387 27.4048 185.387 22.2096C185.387 19.815 186.41 17.6046 187.58 15.2092L193.064 3.86083H198.255L192.844 14.6934C193.466 14.4355 194.16 14.3618 194.781 14.3618ZM220.028 11.4507V22.5043C220.028 27.5154 216.372 30.316 212.132 30.316C207.891 30.316 204.199 27.5154 204.199 22.5043V11.4507C204.199 6.44044 207.891 3.63979 212.132 3.63979C216.372 3.63979 220.028 6.44044 220.028 11.4507Z" fill="#202020"/>
<path fill-rule="evenodd" clip-rule="evenodd" d="M13.1827 20.6835C10.6768 21.3548 9.42351 22.3617 9.26674 23.2008C9.26674 24.5435 11.7726 25.2156 14.4352 25.5512L13.1827 27.0617C10.6768 28.4043 10.8328 29.4112 6.13463 28.0686C5.50837 28.0686 5.03807 27.9008 4.56858 27.733C1.43565 26.8938 0.0263672 25.8869 0.0263672 25.0478C0.0263672 24.8799 0.0263672 24.8799 0.183135 24.7121C1.27889 22.3617 2.37545 22.1939 4.72535 22.1939C7.07443 22.0261 9.89382 21.1869 13.1827 20.5156V20.6835Z" fill="#B6B6B6"/>
<path fill-rule="evenodd" clip-rule="evenodd" d="M20.5142 8.76562C15.6293 9.60476 12.3193 10.9474 12.3193 12.4578C12.1617 14.4725 16.8899 15.3117 21.4597 15.4795L20.5142 17.9977C17.993 19.1725 14.0526 20.0116 11.3738 19.676C7.27587 19.0047 7.43345 19.0047 5.70007 18.5012H5.54249C1.75975 17.4934 0.0263672 15.8152 0.0263672 14.976C0.0263672 14.8082 0.0263672 14.4725 0.183947 14.4725L1.91733 11.1152C8.53651 11.4508 14.3678 9.60476 20.5142 8.76562Z" fill="#B6B6B6"/>
<path fill-rule="evenodd" clip-rule="evenodd" d="M11.351 3.77401C11.351 4.10475 11.1041 4.38309 10.7776 4.41175C9.50799 4.52554 8.34807 4.54437 7.18734 4.69009V1.72489C7.18734 1.33766 6.85187 1.03639 6.4701 1.08797C2.54765 1.62501 0.0263672 2.66144 0.0263672 3.61191V14.9774C0.0263672 13.6348 6.68779 12.2431 14.8478 12.2431L27.9343 12.0548C28.9895 12.0393 29.8367 11.1731 29.8367 10.1097C29.8367 7.00528 29.8367 4.33152 29.8367 1.09451C29.8367 0.736757 29.5483 0.445312 29.1933 0.445312H23.319C22.9632 0.445312 22.6757 0.735939 22.6757 1.09451V3.48993C22.6757 3.84769 22.3873 4.13831 22.0324 4.13831H18.512V1.09451C18.512 0.735939 18.2236 0.445313 17.8687 0.451043C15.9412 0.479696 13.9219 0.627056 11.9943 0.656528C11.6386 0.662259 11.351 0.952067 11.351 1.31064V3.77401Z" fill="#202020"/>
<path fill-rule="evenodd" clip-rule="evenodd" d="M11.351 23.2013C5.02264 23.2013 0.0263672 24.0413 0.0263672 25.0483V17.8784C0.0263672 16.8714 5.52218 15.4805 11.8506 15.4805L22.0194 15.2775C22.3792 15.2701 22.6757 15.5624 22.6757 15.9259V21.0769C22.6757 22.1363 21.8334 23.0016 20.7815 23.0212L11.351 23.2013Z" fill="#202020"/>
<path fill-rule="evenodd" clip-rule="evenodd" d="M8.51946 25.5508C4.19006 25.5508 0.0263672 26.9417 0.0263672 27.9487V33.9978C1.13836 33.3977 4.92841 33.2716 6.31821 33.2716H13.4174C14.484 33.2716 15.3482 32.4006 15.3482 31.3265V26.1992C15.3482 25.8406 15.0599 25.5508 14.7049 25.5508H8.51946Z" fill="#202020"/>
</g>
<defs>
<clipPath id="clip0_2172_1659">
<rect width="224" height="34" fill="white"/>
</clipPath>
</defs>
</svg>
