<svg width="52" height="52" viewBox="0 0 52 52" fill="none" xmlns="http://www.w3.org/2000/svg">
<path fill-rule="evenodd" clip-rule="evenodd" d="M42.8383 30.21H14.6098C12.8764 30.21 10.8955 31.6957 10.4002 33.429L7.18119 43.5814C6.43833 45.3147 7.4288 46.5528 9.16214 46.5528H37.3907C39.124 46.5528 41.105 45.3147 41.6002 43.5814L45.0669 33.429C45.5621 31.6957 44.5717 30.21 42.8383 30.21Z" stroke="#202020" stroke-width="2" stroke-miterlimit="22.9256" stroke-linecap="round" stroke-linejoin="round"/>
<path d="M6.93359 44.571V28.7234C6.93359 26.99 8.17169 25.752 9.90502 25.752H13.1241" stroke="#202020" stroke-width="2" stroke-miterlimit="22.9256" stroke-linecap="round" stroke-linejoin="round"/>
<path d="M13.6191 30.4567V16.0948C13.6191 14.8567 14.6096 13.8662 15.8477 13.8662H27.7334L35.162 21.2948V30.2091" stroke="#202020" stroke-width="2" stroke-miterlimit="22.9256" stroke-linecap="round" stroke-linejoin="round"/>
<path fill-rule="evenodd" clip-rule="evenodd" d="M35.162 21.2948H29.962C28.7239 21.2948 27.7334 20.3043 27.7334 19.0662V13.8662L35.162 21.2948Z" stroke="#202020" stroke-width="2" stroke-miterlimit="22.9256" stroke-linecap="round" stroke-linejoin="round"/>
<path d="M21.0479 13.8666V8.419C21.0479 7.18091 22.2859 6.19043 23.524 6.19043H35.1621L42.8383 13.619V30.2095" stroke="#202020" stroke-width="2" stroke-miterlimit="22.9256" stroke-linecap="round" stroke-linejoin="round"/>
<path fill-rule="evenodd" clip-rule="evenodd" d="M42.8383 13.619H37.6383C36.4002 13.619 35.1621 12.6285 35.1621 11.3904V6.19043L42.8383 13.619Z" stroke="#202020" stroke-width="2" stroke-miterlimit="22.9256" stroke-linecap="round" stroke-linejoin="round"/>
<path d="M18.0762 26H30.7047" stroke="#202020" stroke-width="2" stroke-miterlimit="22.9256" stroke-linecap="round" stroke-linejoin="round"/>
<path d="M18.0762 21.2949H23.0286" stroke="#202020" stroke-width="2" stroke-miterlimit="22.9256" stroke-linecap="round" stroke-linejoin="round"/>
</svg>
