<svg width="52" height="52" viewBox="0 0 52 52" fill="none" xmlns="http://www.w3.org/2000/svg">
<path d="M48.2473 34.8463V12.5988M48.2473 12.5988C48.2473 10.9906 46.9071 9.65039 45.2988 9.65039H12.0617C10.4535 9.65039 9.11328 10.9906 9.11328 12.5988M48.2473 12.5988V43.9597C48.2473 45.2999 46.9071 46.6401 45.2988 46.6401H12.0617C10.4535 46.6401 9.11328 45.2999 9.11328 43.9597V12.5988M9.11328 12.5988V34.8463" stroke="#202020" stroke-width="2" stroke-miterlimit="22.9256" stroke-linecap="round" stroke-linejoin="round"/>
<path d="M9.11328 16.3516H48.2473" stroke="#202020" stroke-width="2" stroke-miterlimit="22.9256" stroke-linecap="round" stroke-linejoin="round"/>
<path d="M13.9385 13.1348H14.2065" stroke="#202020" stroke-width="2" stroke-miterlimit="22.9256" stroke-linecap="round" stroke-linejoin="round"/>
<path d="M18.2266 13.1348H18.7626" stroke="#202020" stroke-width="2" stroke-miterlimit="22.9256" stroke-linecap="round" stroke-linejoin="round"/>
<path d="M22.7832 13.1348H23.0512" stroke="#202020" stroke-width="2" stroke-miterlimit="22.9256" stroke-linecap="round" stroke-linejoin="round"/>
<path fill-rule="evenodd" clip-rule="evenodd" d="M23.5879 33.2382V29.7536L25.4642 29.4856C25.7322 28.6814 26.0003 27.8773 26.5363 27.0732L25.1961 25.733L27.6085 23.0526L29.2168 24.3928C30.0209 23.8567 30.825 23.5887 31.6291 23.3206V21.4443H35.3817V23.3206C36.4539 23.5887 37.258 23.8567 37.7941 24.3928L39.4023 23.0526L42.0827 25.733L40.7425 27.0732C41.0106 27.8773 41.5467 28.6814 41.5467 29.4856L43.691 29.7536V33.2382L41.5467 33.5062C41.5467 34.3103 41.0106 35.1144 40.7425 35.9186L42.0827 37.2588L39.4023 39.9392L37.7941 38.599C37.258 39.1351 36.4539 39.4031 35.3817 39.6711V41.5474H31.6291V39.6711C30.825 39.4031 30.0209 39.1351 29.2168 38.599L27.6085 39.9392L25.1961 37.2588L26.5363 35.9186C26.0003 35.1144 25.7322 34.3103 25.4642 33.5062L23.5879 33.2382ZM33.5054 27.3412C35.9178 27.3412 37.7941 29.2175 37.7941 31.6299C37.7941 33.7742 35.9178 35.6505 33.5054 35.6505C31.3611 35.6505 29.4848 33.7742 29.4848 31.6299C29.4848 29.2175 31.3611 27.3412 33.5054 27.3412Z" stroke="#202020" stroke-width="2" stroke-miterlimit="22.9256" stroke-linecap="round" stroke-linejoin="round"/>
<path d="M4.02051 9.11401C4.02051 7.50576 5.09267 6.43359 6.70092 6.43359H39.938C41.5463 6.43359 42.8865 7.50576 42.8865 9.11401V9.65009M4.02051 9.11401V40.4748C4.02051 42.0831 5.09267 43.4233 6.70092 43.4233H9.11329M4.02051 9.11401V31.6295" stroke="#202020" stroke-width="2" stroke-miterlimit="22.9256" stroke-linecap="round" stroke-linejoin="round"/>
<path d="M13.9385 21.1758H20.9075" stroke="#202020" stroke-width="2" stroke-miterlimit="22.9256" stroke-linecap="round" stroke-linejoin="round"/>
<path d="M13.9375 24.9287H20.9066" stroke="#202020" stroke-width="2" stroke-miterlimit="22.9256" stroke-linecap="round" stroke-linejoin="round"/>
<path d="M13.9385 28.9492H17.9591" stroke="#202020" stroke-width="2" stroke-miterlimit="22.9256" stroke-linecap="round" stroke-linejoin="round"/>
</svg>
