<svg width="100" height="100" viewBox="0 0 100 100" fill="none" xmlns="http://www.w3.org/2000/svg">
<path d="M6.89893 20.1052H93.1013" stroke="white" stroke-width="2" stroke-miterlimit="22.9256" stroke-linecap="round" stroke-linejoin="round"/>
<path d="M15.5059 15.0458H15.9658" stroke="white" stroke-width="2" stroke-miterlimit="22.9256" stroke-linecap="round" stroke-linejoin="round"/>
<path d="M21.6162 15.0458H22.1418" stroke="white" stroke-width="2" stroke-miterlimit="22.9256" stroke-linecap="round" stroke-linejoin="round"/>
<path d="M27.7925 15.0458H28.3181" stroke="white" stroke-width="2" stroke-miterlimit="22.9256" stroke-linecap="round" stroke-linejoin="round"/>
<path d="M29.9604 35.2829V39.0937C29.9604 40.2106 29.0406 41.1305 27.9236 41.1305H19.3822C18.331 41.1305 17.4111 40.2106 17.4111 39.0937V30.5523C17.4111 29.4353 18.331 28.5155 19.3822 28.5155H23.9157" stroke="white" stroke-width="2" stroke-miterlimit="22.9256" stroke-linecap="round" stroke-linejoin="round"/>
<path d="M30.4861 28.7783L23.653 36.0714L21.1562 33.3775" stroke="white" stroke-width="2" stroke-miterlimit="22.9256" stroke-linecap="round" stroke-linejoin="round"/>
<path d="M36.3994 31.5378H46.3863" stroke="white" stroke-width="2" stroke-miterlimit="22.9256" stroke-linecap="round" stroke-linejoin="round"/>
<path d="M36.3994 38.1082H52.1681" stroke="white" stroke-width="2" stroke-miterlimit="22.9256" stroke-linecap="round" stroke-linejoin="round"/>
<path d="M29.9604 55.5195V59.3303C29.9604 60.4472 29.0406 61.3014 27.9236 61.3014H19.3822C18.331 61.3014 17.4111 60.4472 17.4111 59.3303V50.7889C17.4111 49.6719 18.331 48.7521 19.3822 48.7521H23.9157" stroke="white" stroke-width="2" stroke-miterlimit="22.9256" stroke-linecap="round" stroke-linejoin="round"/>
<path d="M30.4861 49.0149L23.653 56.3079L21.1562 53.6141" stroke="white" stroke-width="2" stroke-miterlimit="22.9256" stroke-linecap="round" stroke-linejoin="round"/>
<path d="M36.3994 51.7744H46.3863" stroke="white" stroke-width="2" stroke-miterlimit="22.9256" stroke-linecap="round" stroke-linejoin="round"/>
<path d="M36.3994 58.3447H52.1681" stroke="white" stroke-width="2" stroke-miterlimit="22.9256" stroke-linecap="round" stroke-linejoin="round"/>
<path d="M29.9604 75.7556V79.5663C29.9604 80.6176 29.0406 81.5374 27.9236 81.5374H19.3822C18.331 81.5374 17.4111 80.6176 17.4111 79.5663V71.025C17.4111 69.908 18.331 68.9882 19.3822 68.9882H23.9157" stroke="white" stroke-width="2" stroke-miterlimit="22.9256" stroke-linecap="round" stroke-linejoin="round"/>
<path d="M30.4861 69.251L23.653 76.544L21.1562 73.8502" stroke="white" stroke-width="2" stroke-miterlimit="22.9256" stroke-linecap="round" stroke-linejoin="round"/>
<path d="M36.3994 71.9452H46.3863" stroke="white" stroke-width="2" stroke-miterlimit="22.9256" stroke-linecap="round" stroke-linejoin="round"/>
<path d="M36.3994 78.5809H52.1681" stroke="white" stroke-width="2" stroke-miterlimit="22.9256" stroke-linecap="round" stroke-linejoin="round"/>
<path d="M93.1668 81.2746H83.6399L83.4428 76.0841C81.1432 75.5585 78.975 74.6386 77.0696 73.456L73.1931 76.9382L66.5571 70.2365L70.0394 66.3601C68.791 64.4547 67.9369 62.2865 67.4112 60.0526L62.2207 59.7898V50.3285L67.4112 50.0657C67.9369 47.7661 68.791 45.6636 70.0394 43.6925L66.5571 39.8817L73.1931 33.18L77.0696 36.6623C78.975 35.4796 81.1432 34.5598 83.4428 34.0342L83.6399 28.8436H93.1668M93.1668 64.7175C91.7214 65.4402 90.0788 65.8344 88.4362 65.8344C82.4572 65.8344 77.6609 60.9724 77.6609 55.0591C77.6609 49.0802 82.4572 44.2838 88.4362 44.2838C90.0788 44.2838 91.7214 44.6781 93.1668 45.4008" stroke="#FF9029" stroke-width="2" stroke-miterlimit="22.9256" stroke-linecap="round" stroke-linejoin="round"/>
<path fill-rule="evenodd" clip-rule="evenodd" d="M15.243 10.0526C10.6438 10.0526 6.83301 13.7977 6.83301 18.3969V81.6032C6.83301 86.2024 10.6438 90.0132 15.243 90.0132H84.7568C89.356 90.0132 93.1668 86.2024 93.1668 81.6032V18.3969C93.1668 13.7977 89.356 10.0526 84.7568 10.0526H15.243Z" stroke="white" stroke-width="2" stroke-miterlimit="22.9256" stroke-linecap="round" stroke-linejoin="round"/>
</svg>
