<svg width="30" height="30" viewBox="0 0 30 30" fill="none" xmlns="http://www.w3.org/2000/svg">
<path d="M17.3143 17.3143C15.4286 19.26 15.2914 21.6857 15.1286 27C20.0829 27 23.5029 26.9829 25.2686 25.2686C26.9829 23.5029 27 19.92 27 15.1286C21.6857 15.3 19.26 15.4286 17.3143 17.3143ZM3 15.1286C3 19.92 3.01714 23.5029 4.73143 25.2686C6.49714 26.9829 9.91714 27 14.8714 27C14.7 21.6857 14.5714 19.26 12.6857 17.3143C10.74 15.4286 8.31429 15.2914 3 15.1286ZM14.8714 3C9.92571 3 6.49714 3.01714 4.73143 4.73143C3.01714 6.49714 3 10.08 3 14.8714C8.31429 14.7 10.74 14.5714 12.6857 12.6857C14.5714 10.74 14.7086 8.31429 14.8714 3ZM17.3143 12.6857C15.4286 10.74 15.2914 8.31429 15.1286 3C20.0829 3 23.5029 3.01714 25.2686 4.73143C26.9829 6.49714 27 10.08 27 14.8714C21.6857 14.7 19.26 14.5714 17.3143 12.6857Z" stroke="white" stroke-width="1.5" stroke-linejoin="round"/>
</svg>
