<svg width="30" height="30" viewBox="0 0 30 30" fill="none" xmlns="http://www.w3.org/2000/svg">
<path d="M6.58709 6.07025L6.05697 5.5397L6.05633 5.54035L6.58709 6.07025ZM23.8409 6.07025L23.3106 6.60058L23.3108 6.60079L23.8409 6.07025ZM23.8499 23.3079L23.3197 22.7774L23.3196 22.7776L23.8499 23.3079ZM23.8391 23.3187L23.3088 22.7883L23.3088 22.7884L23.8391 23.3187ZM12.1652 26.5054L12.3531 25.7793L12.3514 25.7789L12.1652 26.5054ZM9.54094 25.4933L9.89019 24.8296C9.71208 24.7359 9.50377 24.7177 9.3121 24.7791L9.54094 25.4933ZM3.352 27.4763L3.57258 28.1932L3.58084 28.1905L3.352 27.4763ZM2.98478 27.4763L2.74016 28.1853L2.74127 28.1857L2.98478 27.4763ZM2.61219 26.7311L1.90134 26.4919L1.89944 26.4977L2.61219 26.7311ZM4.62203 20.7589L5.33286 20.9981C5.40134 20.7946 5.37933 20.5716 5.27239 20.3854L4.62203 20.7589ZM3.4541 17.9627L2.73189 18.165L2.73203 18.1655L3.4541 17.9627ZM6.58709 6.07025L7.1172 6.60079C9.19481 4.52487 12.057 3.24481 15.214 3.24481V2.49481V1.74481C11.6428 1.74481 8.40389 3.19469 6.05697 5.5397L6.58709 6.07025ZM15.214 2.49481V3.24481C18.3761 3.24481 21.2401 4.53006 23.3106 6.60058L23.8409 6.07025L24.3712 5.53992C22.0316 3.20026 18.7908 1.74481 15.214 1.74481V2.49481ZM23.8409 6.07025L23.3108 6.60079C25.3878 8.67611 26.6663 11.5398 26.6663 14.6972H27.4163H28.1663C28.1663 11.1264 26.7185 7.88532 24.371 5.5397L23.8409 6.07025ZM27.4163 14.6972H26.6663C26.6663 17.8512 25.3912 20.7076 23.3197 22.7774L23.8499 23.3079L24.38 23.8385C26.7223 21.4981 28.1663 18.2641 28.1663 14.6972H27.4163ZM23.8499 23.3079L23.3196 22.7776L23.3088 22.7883L23.8391 23.3187L24.3694 23.8491L24.3802 23.8383L23.8499 23.3079ZM23.8391 23.3187L23.3088 22.7884C21.2332 24.864 18.3693 26.1441 15.2122 26.1441V26.8941V27.6441C18.7832 27.6441 22.0241 26.1944 24.3694 23.849L23.8391 23.3187ZM15.2122 26.8941V26.1441C14.2293 26.1441 13.2696 26.0164 12.3531 25.7793L12.1652 26.5054L11.9773 27.2315C13.0133 27.4995 14.0992 27.6441 15.2122 27.6441V26.8941ZM12.1652 26.5054L12.3514 25.7789C11.4869 25.5573 10.6602 25.2348 9.89019 24.8296L9.54094 25.4933L9.19169 26.1571C10.0625 26.6153 10.9985 26.9806 11.979 27.2319L12.1652 26.5054ZM9.54094 25.4933L9.3121 24.7791L3.12315 26.7621L3.352 27.4763L3.58084 28.1905L9.76979 26.2076L9.54094 25.4933ZM3.352 27.4763L3.13143 26.7595C3.13762 26.7576 3.14732 26.7554 3.16164 26.7552C3.17632 26.7551 3.19958 26.7571 3.2283 26.7669L2.98478 27.4763L2.74127 28.1857C3.03693 28.2872 3.33267 28.267 3.57256 28.1931L3.352 27.4763ZM2.98478 27.4763L3.2294 26.7673C3.30683 26.794 3.35325 26.8781 3.32494 26.9645L2.61219 26.7311L1.89944 26.4977C1.67051 27.1968 2.05011 27.9472 2.74016 28.1853L2.98478 27.4763ZM2.61219 26.7311L3.32302 26.9703L5.33286 20.9981L4.62203 20.7589L3.9112 20.5197L1.90136 26.4919L2.61219 26.7311ZM4.62203 20.7589L5.27239 20.3854C4.80628 19.5739 4.43762 18.691 4.17617 17.7599L3.4541 17.9627L2.73203 18.1655C3.02588 19.212 3.44182 20.21 3.97168 21.1325L4.62203 20.7589ZM3.4541 17.9627L4.17631 17.7604C3.90259 16.7831 3.75628 15.7477 3.75628 14.6936H3.00628H2.25628C2.25628 15.8858 2.42165 17.0572 2.73189 18.165L3.4541 17.9627ZM3.00628 14.6936H3.75628C3.75628 11.5432 5.04441 8.67695 7.11785 6.60015L6.58709 6.07025L6.05633 5.54035C3.716 7.88448 2.25628 11.1266 2.25628 14.6936H3.00628Z" fill="white"/>
<path d="M11.1628 8.48406C11.5009 8.50382 11.6678 8.52138 11.8895 9.05269L11.8852 9.05489C12.1618 9.7289 12.8292 11.3689 12.9148 11.5358C13.0027 11.7092 13.0773 11.9376 12.9653 12.1593C12.8534 12.3789 12.7612 12.4842 12.5943 12.6818C12.4296 12.8794 12.276 13.0265 12.1025 13.2373C11.9488 13.4151 11.7754 13.6193 11.9664 13.953C12.1574 14.2867 12.8314 15.3845 13.8238 16.2671C15.1016 17.4021 16.1444 17.7666 16.5154 17.9269C16.7921 18.0432 17.1192 18.0125 17.3234 17.7973C17.589 17.5185 17.8964 17.0553 18.2235 16.6052C18.4585 16.2868 18.7439 16.2473 19.0512 16.3593C19.3467 16.4648 20.8758 17.2196 21.2901 17.4241L21.3346 17.4461C21.6727 17.6129 21.8944 17.6985 21.9756 17.8347C22.0547 17.973 22.0547 18.6448 21.778 19.422C21.508 20.2058 20.4015 20.8491 19.5321 21.0401C18.9283 21.1674 18.1489 21.2662 15.5143 20.1751C12.142 18.7743 9.97069 15.3472 9.80383 15.1254C9.63698 14.9037 8.44043 13.3119 8.44043 11.6697C8.44043 10.0209 9.27911 9.21735 9.61283 8.87925C9.88287 8.60042 10.3395 8.47089 10.7786 8.47089C10.9169 8.47089 11.0443 8.47747 11.1628 8.48406Z" stroke="white" stroke-width="1.5"/>
</svg>
