<svg width="52" height="52" viewBox="0 0 52 52" fill="none" xmlns="http://www.w3.org/2000/svg">
<path d="M36.5274 46.4202H10.4006C8.87864 46.4202 7.61035 45.1519 7.61035 43.6299V13.4445C7.61035 11.9226 8.87864 10.6543 10.4006 10.6543H43.6299C45.1518 10.6543 46.4201 11.9226 46.4201 13.4445V34.7519" stroke="#202020" stroke-width="2" stroke-miterlimit="22.9256" stroke-linecap="round" stroke-linejoin="round"/>
<path d="M7.61035 44.1372H4.56644C3.29815 44.1372 2.28352 43.1226 2.53718 41.6006L5.58108 13.1909C5.83474 11.9226 7.10303 10.6543 8.37132 10.6543H10.4006" stroke="#202020" stroke-width="2" stroke-miterlimit="22.9256" stroke-linecap="round" stroke-linejoin="round"/>
<path d="M7.61035 16.2344H46.4201" stroke="#202020" stroke-width="2" stroke-miterlimit="22.9256" stroke-linecap="round" stroke-linejoin="round"/>
<path d="M14.2051 8.37109V12.9369" stroke="#202020" stroke-width="2" stroke-miterlimit="22.9256" stroke-linecap="round" stroke-linejoin="round"/>
<path d="M22.8301 8.37109V12.9369" stroke="#202020" stroke-width="2" stroke-miterlimit="22.9256" stroke-linecap="round" stroke-linejoin="round"/>
<path d="M31.4541 8.37109V12.9369" stroke="#202020" stroke-width="2" stroke-miterlimit="22.9256" stroke-linecap="round" stroke-linejoin="round"/>
<path d="M40.0791 8.37109V12.9369" stroke="#202020" stroke-width="2" stroke-miterlimit="22.9256" stroke-linecap="round" stroke-linejoin="round"/>
<path fill-rule="evenodd" clip-rule="evenodd" d="M12.6836 20.293H15.7275C15.9811 20.293 16.4885 20.8003 16.4885 21.0539V24.0978C16.4885 24.6052 15.9811 25.1125 15.7275 25.1125H12.6836C12.1763 25.1125 11.6689 24.6052 11.6689 24.0978V21.0539C11.6689 20.8003 12.1763 20.293 12.6836 20.293Z" stroke="#202020" stroke-width="2" stroke-miterlimit="22.9256" stroke-linecap="round" stroke-linejoin="round"/>
<path fill-rule="evenodd" clip-rule="evenodd" d="M12.6836 28.6641H15.7275C15.9811 28.6641 16.4885 29.1714 16.4885 29.6787V32.7226C16.4885 33.2299 15.9811 33.4836 15.7275 33.4836H12.6836C12.1763 33.4836 11.6689 33.2299 11.6689 32.7226V29.6787C11.6689 29.1714 12.1763 28.6641 12.6836 28.6641Z" stroke="#202020" stroke-width="2" stroke-miterlimit="22.9256" stroke-linecap="round" stroke-linejoin="round"/>
<path fill-rule="evenodd" clip-rule="evenodd" d="M12.6836 37.2881H15.7275C15.9811 37.2881 16.4885 37.5417 16.4885 38.0491V41.093C16.4885 41.6003 15.9811 42.1076 15.7275 42.1076H12.6836C12.1763 42.1076 11.6689 41.6003 11.6689 41.093V38.0491C11.6689 37.5417 12.1763 37.2881 12.6836 37.2881Z" stroke="#202020" stroke-width="2" stroke-miterlimit="22.9256" stroke-linecap="round" stroke-linejoin="round"/>
<path fill-rule="evenodd" clip-rule="evenodd" d="M21.3076 20.293H24.3515C24.8588 20.293 25.1125 20.8003 25.1125 21.0539V24.0978C25.1125 24.6052 24.8588 25.1125 24.3515 25.1125H21.3076C20.8003 25.1125 20.293 24.6052 20.293 24.0978V21.0539C20.293 20.8003 20.8003 20.293 21.3076 20.293Z" stroke="#202020" stroke-width="2" stroke-miterlimit="22.9256" stroke-linecap="round" stroke-linejoin="round"/>
<path fill-rule="evenodd" clip-rule="evenodd" d="M21.3076 28.6641H24.3515C24.8588 28.6641 25.1125 29.1714 25.1125 29.6787V32.7226C25.1125 33.2299 24.8588 33.4836 24.3515 33.4836H21.3076C20.8003 33.4836 20.293 33.2299 20.293 32.7226V29.6787C20.293 29.1714 20.8003 28.6641 21.3076 28.6641Z" stroke="#202020" stroke-width="2" stroke-miterlimit="22.9256" stroke-linecap="round" stroke-linejoin="round"/>
<path fill-rule="evenodd" clip-rule="evenodd" d="M21.3076 37.2881H24.3515C24.8588 37.2881 25.1125 37.5417 25.1125 38.0491V41.093C25.1125 41.6003 24.8588 42.1076 24.3515 42.1076H21.3076C20.8003 42.1076 20.293 41.6003 20.293 41.093V38.0491C20.293 37.5417 20.8003 37.2881 21.3076 37.2881Z" stroke="#202020" stroke-width="2" stroke-miterlimit="22.9256" stroke-linecap="round" stroke-linejoin="round"/>
<path fill-rule="evenodd" clip-rule="evenodd" d="M29.9319 20.293H32.9758C33.4831 20.293 33.7368 20.8003 33.7368 21.0539V24.0978C33.7368 24.6052 33.4831 25.1125 32.9758 25.1125H29.9319C29.4246 25.1125 29.1709 24.6052 29.1709 24.0978V21.0539C29.1709 20.8003 29.4246 20.293 29.9319 20.293Z" stroke="#202020" stroke-width="2" stroke-miterlimit="22.9256" stroke-linecap="round" stroke-linejoin="round"/>
<path fill-rule="evenodd" clip-rule="evenodd" d="M29.9319 28.6641H32.9758C33.4831 28.6641 33.7368 29.1714 33.7368 29.6787V32.7226C33.7368 33.2299 33.4831 33.4836 32.9758 33.4836H29.9319C29.4246 33.4836 29.1709 33.2299 29.1709 32.7226V29.6787C29.1709 29.1714 29.4246 28.6641 29.9319 28.6641Z" stroke="#202020" stroke-width="2" stroke-miterlimit="22.9256" stroke-linecap="round" stroke-linejoin="round"/>
<path fill-rule="evenodd" clip-rule="evenodd" d="M38.5569 20.293H41.6008C42.1081 20.293 42.3618 20.8003 42.3618 21.0539V24.0978C42.3618 24.6052 42.1081 25.1125 41.6008 25.1125H38.5569C38.0496 25.1125 37.7959 24.6052 37.7959 24.0978V21.0539C37.7959 20.8003 38.0496 20.293 38.5569 20.293Z" stroke="#202020" stroke-width="2" stroke-miterlimit="22.9256" stroke-linecap="round" stroke-linejoin="round"/>
<path d="M41.8539 48.449C46.0566 48.449 49.4637 45.042 49.4637 40.8393C49.4637 36.6365 46.0566 33.2295 41.8539 33.2295C37.6511 33.2295 34.2441 36.6365 34.2441 40.8393C34.2441 45.042 37.6511 48.449 41.8539 48.449Z" stroke="#202020" stroke-width="2" stroke-miterlimit="22.9256" stroke-linecap="round" stroke-linejoin="round"/>
<path d="M41.8537 42.6147C42.8344 42.6147 43.6293 41.8197 43.6293 40.8391C43.6293 39.8584 42.8344 39.0635 41.8537 39.0635C40.8731 39.0635 40.0781 39.8584 40.0781 40.8391C40.0781 41.8197 40.8731 42.6147 41.8537 42.6147Z" stroke="#202020" stroke-width="2" stroke-miterlimit="22.9256" stroke-linecap="round" stroke-linejoin="round"/>
<path d="M41.8535 39.0634V33.9902" stroke="#202020" stroke-width="2" stroke-miterlimit="22.9256" stroke-linecap="round" stroke-linejoin="round"/>
<path d="M42.8691 39.571L44.6447 37.2881" stroke="#202020" stroke-width="2" stroke-miterlimit="22.9256" stroke-linecap="round" stroke-linejoin="round"/>
</svg>
