<svg width="50" height="50" viewBox="0 0 50 50" fill="none" xmlns="http://www.w3.org/2000/svg">
<g clip-path="url(#clip0_427_11989)">
<path fill-rule="evenodd" clip-rule="evenodd" d="M12.5391 14.3637C12.5391 12.5398 13.907 11.1719 15.7309 11.1719H34.8818C36.7057 11.1719 38.0736 12.5398 38.0736 14.3637V23.7112C38.0736 33.2866 32.3739 36.7064 25.3063 41.7221C18.2387 36.7064 12.5391 33.2866 12.5391 23.7112V14.3637Z" stroke="#FF9029" stroke-width="1.6871" stroke-miterlimit="22.9256" stroke-linecap="round" stroke-linejoin="round"/>
<path fill-rule="evenodd" clip-rule="evenodd" d="M17.0986 15.7314V23.711C17.0986 26.2188 17.5546 28.4987 18.9225 30.7786C20.5184 32.8305 23.0263 34.6544 25.3062 36.2503C27.586 34.6544 30.0939 32.8305 31.6898 30.7786C33.0577 28.4987 33.5137 26.2188 33.5137 23.711V15.7314H17.0986Z" stroke="#FF9029" stroke-width="1.6871" stroke-miterlimit="22.9256" stroke-linecap="round" stroke-linejoin="round"/>
<path fill-rule="evenodd" clip-rule="evenodd" d="M25.3068 1.36816C26.4467 1.36816 27.3586 2.28011 27.3586 3.42005C27.3586 4.55998 26.4467 5.47193 25.3068 5.47193C24.1668 5.47193 23.2549 4.55998 23.2549 3.42005C23.2549 2.28011 24.1668 1.36816 25.3068 1.36816Z" stroke="#FF9029" stroke-width="1.6871" stroke-miterlimit="22.9256" stroke-linecap="round" stroke-linejoin="round"/>
<path fill-rule="evenodd" clip-rule="evenodd" d="M25.3066 5.47168V10.9434V5.47168Z" stroke="#FF9029" stroke-width="1.6871" stroke-miterlimit="22.9256" stroke-linecap="round" stroke-linejoin="round"/>
<path fill-rule="evenodd" clip-rule="evenodd" d="M25.3068 49.2444C26.4467 49.2444 27.3586 48.3324 27.3586 47.1925C27.3586 46.0526 26.4467 45.1406 25.3068 45.1406C24.1668 45.1406 23.2549 46.0526 23.2549 47.1925C23.2549 48.3324 24.1668 49.2444 25.3068 49.2444Z" stroke="#FF9029" stroke-width="1.6871" stroke-miterlimit="22.9256" stroke-linecap="round" stroke-linejoin="round"/>
<path fill-rule="evenodd" clip-rule="evenodd" d="M25.3066 45.141V41.9492V45.141Z" stroke="#FF9029" stroke-width="1.6871" stroke-miterlimit="22.9256" stroke-linecap="round" stroke-linejoin="round"/>
<path fill-rule="evenodd" clip-rule="evenodd" d="M1.36816 25.3058C1.36816 24.1659 2.28011 23.2539 3.42005 23.2539C4.55998 23.2539 5.47193 24.1659 5.47193 25.3058C5.47193 26.4457 4.55998 27.3577 3.42005 27.3577C2.28011 27.3577 1.36816 26.4457 1.36816 25.3058Z" stroke="#FF9029" stroke-width="1.6871" stroke-miterlimit="22.9256" stroke-linecap="round" stroke-linejoin="round"/>
<path fill-rule="evenodd" clip-rule="evenodd" d="M5.47168 25.3057H12.5393H5.47168Z" stroke="#FF9029" stroke-width="1.6871" stroke-miterlimit="22.9256" stroke-linecap="round" stroke-linejoin="round"/>
<path fill-rule="evenodd" clip-rule="evenodd" d="M49.2454 25.3058C49.2454 24.1659 48.3334 23.2539 47.1935 23.2539C46.0535 23.2539 45.1416 24.1659 45.1416 25.3058C45.1416 26.4457 46.0535 27.3577 47.1935 27.3577C48.3334 27.3577 49.2454 26.4457 49.2454 25.3058Z" stroke="#FF9029" stroke-width="1.6871" stroke-miterlimit="22.9256" stroke-linecap="round" stroke-linejoin="round"/>
<path fill-rule="evenodd" clip-rule="evenodd" d="M45.1418 25.3057H38.0742H45.1418Z" stroke="#FF9029" stroke-width="1.6871" stroke-miterlimit="22.9256" stroke-linecap="round" stroke-linejoin="round"/>
<path fill-rule="evenodd" clip-rule="evenodd" d="M8.43591 42.1776C7.52397 41.4937 7.52397 40.1257 8.43591 39.4418C9.11987 38.5298 10.4878 38.5298 11.1718 39.4418C12.0837 40.1257 12.0837 41.4937 11.1718 42.1776C10.4878 43.0896 9.11987 43.0896 8.43591 42.1776Z" stroke="#FF9029" stroke-width="1.6871" stroke-miterlimit="22.9256" stroke-linecap="round" stroke-linejoin="round"/>
<path fill-rule="evenodd" clip-rule="evenodd" d="M11.1719 39.4415L16.1876 34.4258L11.1719 39.4415Z" stroke="#FF9029" stroke-width="1.6871" stroke-miterlimit="22.9256" stroke-linecap="round" stroke-linejoin="round"/>
<path fill-rule="evenodd" clip-rule="evenodd" d="M42.1776 8.43494C41.4937 7.52299 40.1257 7.52299 39.4418 8.43494C38.5298 9.1189 38.5298 10.4868 39.4418 11.1708C40.1257 12.0827 41.4937 12.0827 42.1776 11.1708C43.0896 10.4868 43.0896 9.1189 42.1776 8.43494Z" stroke="#FF9029" stroke-width="1.6871" stroke-miterlimit="22.9256" stroke-linecap="round" stroke-linejoin="round"/>
<path fill-rule="evenodd" clip-rule="evenodd" d="M39.4416 11.1719L37.8457 12.7678L39.4416 11.1719Z" stroke="#FF9029" stroke-width="1.6871" stroke-miterlimit="22.9256" stroke-linecap="round" stroke-linejoin="round"/>
<path fill-rule="evenodd" clip-rule="evenodd" d="M42.1776 42.1776C43.0896 41.4937 43.0896 40.1257 42.1776 39.4418C41.4937 38.5298 40.1257 38.5298 39.4418 39.4418C38.5298 40.1257 38.5298 41.4937 39.4418 42.1776C40.1257 43.0896 41.4937 43.0896 42.1776 42.1776Z" stroke="#FF9029" stroke-width="1.6871" stroke-miterlimit="22.9256" stroke-linecap="round" stroke-linejoin="round"/>
<path fill-rule="evenodd" clip-rule="evenodd" d="M39.4425 39.4415L34.4268 34.4258L39.4425 39.4415Z" stroke="#FF9029" stroke-width="1.6871" stroke-miterlimit="22.9256" stroke-linecap="round" stroke-linejoin="round"/>
<path fill-rule="evenodd" clip-rule="evenodd" d="M8.43591 8.43494C9.11987 7.52299 10.4878 7.52299 11.1718 8.43494C12.0837 9.1189 12.0837 10.4868 11.1718 11.1708C10.4878 12.0827 9.11987 12.0827 8.43591 11.1708C7.52397 10.4868 7.52397 9.1189 8.43591 8.43494Z" stroke="#FF9029" stroke-width="1.6871" stroke-miterlimit="22.9256" stroke-linecap="round" stroke-linejoin="round"/>
<path fill-rule="evenodd" clip-rule="evenodd" d="M11.1719 11.1719L12.7678 12.7678L11.1719 11.1719Z" stroke="#FF9029" stroke-width="1.6871" stroke-miterlimit="22.9256" stroke-linecap="round" stroke-linejoin="round"/>
<path d="M33.5139 18.9219L25.3064 27.5854L20.9746 23.0256" stroke="#FF9029" stroke-width="1.6871" stroke-miterlimit="22.9256" stroke-linecap="round" stroke-linejoin="round"/>
</g>
<defs>
<clipPath id="clip0_427_11989">
<rect width="50" height="50" fill="white"/>
</clipPath>
</defs>
</svg>
